<?xml version="1.0" encoding="UTF-8" standalone="no"?>
<!DOCTYPE svg PUBLIC "-//W3C//DTD SVG 1.1//EN" "http://www.w3.org/Graphics/SVG/1.1/DTD/svg11.dtd">
<svg width="100%" height="100%" viewBox="0 0 6173 6563" version="1.1" xmlns="http://www.w3.org/2000/svg" xmlns:xlink="http://www.w3.org/1999/xlink" xml:space="preserve" xmlns:serif="http://www.serif.com/" style="fill-rule:evenodd;clip-rule:evenodd;stroke-linejoin:round;stroke-miterlimit:2;">
    <g transform="matrix(4.16667,0,0,4.16667,-15663.9,-2968.5)">
        <path d="M4707.52,1173.19C4694.64,1160.43 4680.95,1148.98 4666.54,1139.05L4827.16,860.905C4834.49,867.403 4841.81,874.251 4848.78,881.222C4914.57,947.009 4957.8,1027.21 4978.46,1111.89L4757.36,1239.57C4744.25,1215.71 4727.72,1193.39 4707.52,1173.19ZM4487.48,1087.56C4441.42,1089.45 4395.83,1102.21 4354.61,1125.71L4192.32,844.606C4278.31,775.867 4382.6,740.198 4487.48,737.598L4487.48,1087.56ZM4451.22,1878.78C4463.62,1875.94 4475.67,1872.88 4487.48,1869.92C4493.03,1868.51 4498.47,1867.09 4503.78,1865.67C4506.73,1864.96 4509.68,1864.14 4512.52,1863.43C4535.79,1857.4 4557.87,1851.85 4579.49,1848.19L4512.52,1915.16L4500,1927.68L4487.48,1915.16L4451.22,1878.78ZM4487.48,1802.84C4493.03,1801.42 4498.47,1800 4503.78,1798.58C4506.73,1797.76 4509.68,1797.05 4512.52,1796.34C4561.65,1783.58 4605.59,1773.07 4650,1777.68L4608.19,1819.49C4577.13,1821.85 4545.83,1829.17 4512.52,1837.68C4507.56,1838.98 4502.6,1840.28 4497.52,1841.58C4494.21,1842.52 4490.91,1843.35 4487.48,1844.17C4469.29,1848.9 4450.28,1853.74 4430.31,1857.87L4395,1822.68C4428.31,1817.48 4458.78,1810.16 4487.48,1802.84ZM4645.39,1125.71L4807.8,844.606C4721.69,775.867 4617.4,740.198 4512.52,737.598L4512.52,1087.56C4558.58,1089.45 4604.29,1102.21 4645.39,1125.71ZM4307.6,1710.95C4317.64,1711.06 4326.97,1711.42 4335.59,1712.24C4343.39,1713.07 4350.59,1714.14 4357.21,1715.43C4367.83,1717.56 4376.81,1720.51 4384.02,1724.06C4364.17,1726.89 4344.69,1728.9 4325.43,1729.84C4317.88,1730.31 4310.43,1730.55 4302.87,1730.55L4296.14,1730.55L4298.62,1726.3L4283.62,1711.3C4292.01,1710.95 4300.04,1710.83 4307.6,1710.95ZM4773.31,1487.95C4782.52,1464.33 4788.54,1439.88 4791.38,1415.08L4957.09,1415.08C4955.43,1418.98 4953.9,1422.76 4952.24,1426.65C4893.07,1451.57 4832.83,1472.25 4773.31,1487.95ZM4206.73,1390.04L4033.7,1390.04C4016.1,1338.31 4007.36,1284.21 4007.36,1230.12C4007.36,1199.06 4010.2,1168.11 4015.98,1137.52L4231.54,1262.01C4220.55,1287.05 4213.11,1313.39 4209.45,1340.08C4207.09,1356.61 4206.14,1373.39 4206.73,1390.04ZM4823.86,1586.58C4828.58,1585.51 4833.31,1584.33 4837.91,1583.27C4840.87,1582.56 4843.7,1581.85 4846.54,1581.14L4842.05,1585.63L4823.74,1603.94L4787.36,1640.32C4757.48,1643.62 4727.24,1648.7 4697.01,1654.84C4692.05,1639.61 4684.84,1626.14 4675.63,1614.21C4717.68,1608.31 4759.96,1600.75 4802.24,1591.54C4809.45,1589.88 4816.65,1588.23 4823.86,1586.58ZM4575.12,1708.82C4600.63,1702.44 4626.14,1696.18 4651.65,1690.28C4660.16,1688.27 4668.66,1686.38 4677.16,1684.49C4681.54,1683.54 4685.9,1682.6 4690.16,1681.77C4690.51,1681.65 4690.87,1681.54 4691.22,1681.54C4713.78,1676.81 4736.22,1672.56 4758.42,1669.25L4701.38,1726.3L4683.07,1744.6L4671.85,1755.83C4618.7,1745.2 4568.5,1756.18 4512.52,1770.59C4507.56,1771.89 4502.6,1773.19 4497.52,1774.49C4494.21,1775.32 4490.91,1776.26 4487.48,1777.09C4452.64,1786.06 4415.08,1795.39 4372.91,1800.59L4327.09,1754.76C4378.94,1752.05 4432.8,1742.24 4487.48,1729.84C4495.87,1727.95 4504.13,1726.06 4512.52,1724.06C4533.31,1719.1 4554.21,1714.02 4575.12,1708.82ZM4487.48,1704.33C4463.98,1709.65 4440.59,1714.61 4417.56,1718.74C4405.99,1705.4 4387.56,1696.18 4362.05,1690.98C4358.03,1690.16 4353.66,1689.45 4349.17,1688.86C4340.67,1687.68 4331.58,1686.85 4321.65,1686.38C4303.46,1685.55 4282.91,1685.91 4260,1687.56L4227.28,1654.96C4252.68,1656.62 4277.13,1657.21 4300.63,1657.8C4313.27,1658.15 4325.55,1658.39 4337.6,1658.86C4347.16,1659.21 4356.5,1659.68 4365.59,1660.39C4411.3,1663.58 4452.05,1671.26 4487.48,1693.46C4491.5,1695.95 4495.39,1698.66 4499.29,1701.62C4495.39,1702.56 4491.38,1703.39 4487.48,1704.33ZM4606.89,1562.72C4595.31,1557.4 4582.91,1552.68 4569.92,1548.54L4569.8,1548.54C4568.27,1548.07 4566.73,1547.6 4565.08,1547.01C4566.38,1547.01 4567.56,1546.89 4568.86,1546.77C4578.07,1546.18 4587.17,1545.47 4596.38,1544.53C4629.8,1541.46 4663.23,1536.73 4696.65,1530.59C4700.43,1529.88 4704.09,1529.17 4707.87,1528.47C4716.5,1526.81 4725.12,1524.92 4733.74,1523.03C4740.24,1521.61 4746.85,1520.08 4753.35,1518.54C4754.05,1518.42 4754.65,1518.31 4755.35,1518.07C4815.35,1503.66 4876.18,1484.06 4936.3,1460.08C4920.23,1490.79 4900.63,1519.96 4877.72,1547.36C4857.87,1552.68 4838.03,1557.64 4818.19,1562.24C4814.29,1563.19 4810.27,1564.14 4806.38,1564.96C4794.21,1567.8 4782.05,1570.39 4769.88,1572.88C4731.26,1580.67 4692.64,1587.05 4654.13,1592.01C4640.67,1580.55 4624.72,1570.87 4606.89,1562.72ZM4292.48,1173.19C4272.28,1193.39 4255.75,1215.71 4242.64,1239.57L4021.54,1111.89C4042.2,1027.21 4085.43,947.009 4151.22,881.222C4158.31,874.251 4165.51,867.403 4172.83,860.905L4333.46,1139.05C4319.05,1148.98 4305.35,1160.43 4292.48,1173.19ZM4992.64,1390.04C5009.29,1338.19 5017.68,1284.09 5017.68,1230.12C5017.68,1194.69 5014.02,1159.13 5006.93,1124.41C5005.16,1115.79 5003.15,1107.28 5001.02,1098.9C4978.58,1012.56 4933.82,930.945 4866.5,863.623C4857.87,855.001 4849.02,846.732 4839.92,838.818C4833.54,833.268 4826.93,827.836 4820.31,822.638C4730.31,751.89 4621.77,715.157 4512.52,712.559C4508.39,712.441 4504.13,712.441 4500,712.441C4495.87,712.441 4491.61,712.441 4487.48,712.559C4378.23,715.157 4269.69,751.89 4179.69,822.638C4173.07,827.954 4166.58,833.268 4160.08,838.818C4150.98,846.732 4142.13,855.001 4133.5,863.623C4066.3,930.945 4021.42,1012.56 3999.09,1098.9C3996.85,1107.4 3994.84,1115.79 3993.19,1124.41C3985.98,1159.13 3982.32,1194.69 3982.32,1230.12C3982.32,1284.09 3990.71,1338.19 4007.36,1390.04C4010.08,1398.43 4013.03,1406.81 4016.22,1415.08C4021.3,1428.54 4026.97,1441.77 4033.11,1454.76C4038.66,1466.34 4044.69,1477.8 4051.18,1489.14C4062.99,1509.57 4076.22,1529.41 4090.98,1548.43C4099.72,1559.65 4109.06,1570.51 4118.86,1581.14C4123.58,1586.34 4128.54,1591.54 4133.5,1596.5L4135.51,1598.5L4153.82,1616.81L4159.61,1622.6L4188.66,1651.53L4266.38,1729.37L4285.75,1748.74L4292.48,1755.47L4304.05,1767.05L4340.67,1803.66L4363.82,1826.69L4400.67,1863.66L4422.05,1885.04L4487.48,1950.47L4491.14,1954.13C4496.1,1958.98 4504.02,1958.98 4508.86,1954.13L4512.52,1950.47L4619.05,1843.94L4643.74,1819.25L4679.76,1783.23L4695.95,1767.05L4699.72,1763.27L4714.25,1748.74L4798.82,1664.17L4825.98,1637.01L4846.18,1616.81L4864.49,1598.5L4866.5,1596.5C4875.24,1587.76 4883.74,1578.66 4891.77,1569.33C4901.22,1558.46 4910.08,1547.25 4918.46,1535.79C4939.37,1507.09 4957.09,1476.73 4971.38,1445.2C4973.03,1441.54 4974.68,1437.76 4976.22,1434.09C4978.94,1427.84 4981.42,1421.46 4983.9,1415.08C4986.97,1406.81 4989.92,1398.43 4992.64,1390.04ZM4966.3,1390.04L4793.27,1390.04C4793.86,1371.02 4792.68,1352.13 4789.61,1333.35C4785.59,1308.9 4778.62,1284.92 4768.46,1262.01L4984.02,1137.52C4989.8,1168.11 4992.64,1199.06 4992.64,1230.12C4992.64,1284.21 4983.9,1338.31 4966.3,1390.04ZM4582.68,1520.79C4573.47,1521.5 4564.25,1522.21 4554.92,1522.68C4540.87,1523.5 4526.69,1524.1 4512.52,1524.33C4504.13,1524.57 4495.87,1524.57 4487.48,1524.57C4475.31,1524.57 4463.27,1524.21 4451.1,1523.86C4449.09,1523.5 4446.97,1523.27 4444.96,1523.03C4435.98,1521.85 4427.01,1520.67 4417.91,1519.73C4391.34,1516.65 4363.94,1514.05 4336.3,1511.46C4333.46,1511.22 4330.63,1510.99 4327.79,1510.75C4316.34,1509.68 4304.76,1508.62 4293.31,1507.44C4282.68,1506.49 4272.05,1505.43 4261.54,1504.37C4246.89,1476.14 4237.68,1445.91 4233.66,1415.08C4232.6,1406.81 4231.89,1398.43 4231.65,1390.04C4231.06,1374.45 4231.89,1358.86 4234.13,1343.5C4237.32,1319.88 4243.7,1296.73 4253.27,1274.53C4256.58,1266.97 4260.24,1259.41 4264.25,1251.97C4276.3,1230.12 4291.54,1209.45 4310.2,1190.91C4321.42,1179.57 4333.35,1169.53 4345.98,1160.79C4352.84,1155.94 4359.92,1151.46 4367.13,1147.32C4404.45,1126.06 4445.79,1114.49 4487.48,1112.48C4491.61,1112.36 4495.87,1112.24 4500,1112.24C4504.13,1112.24 4508.39,1112.36 4512.52,1112.48C4554.21,1114.49 4595.55,1126.06 4632.87,1147.32C4640.08,1151.46 4647.16,1155.94 4654.02,1160.79C4666.65,1169.53 4678.58,1179.57 4689.92,1190.91C4708.46,1209.45 4723.7,1230.12 4735.75,1251.97C4739.76,1259.41 4743.42,1266.97 4746.73,1274.53C4755.47,1294.84 4761.49,1315.87 4765.04,1337.36C4767.88,1354.72 4768.94,1372.44 4768.35,1390.04C4768.11,1398.43 4767.4,1406.81 4766.34,1415.08C4762.79,1442.72 4754.88,1469.88 4742.83,1495.51C4729.61,1498.58 4716.38,1501.42 4703.15,1503.9C4702.56,1504.13 4701.85,1504.25 4701.26,1504.37C4688.5,1506.85 4675.75,1509.09 4662.87,1511.1C4636.18,1515.23 4609.37,1518.54 4582.68,1520.79ZM4232.36,1501.18C4173.19,1494.21 4116.5,1484.88 4068.42,1468.7C4058.74,1451.22 4050.35,1433.39 4043.03,1415.08L4208.62,1415.08C4212.05,1444.6 4219.96,1473.54 4232.36,1501.18ZM4487.48,1597.91C4463.27,1592.13 4436.81,1587.99 4409.17,1584.92C4400.2,1583.86 4391.1,1582.91 4381.89,1582.09C4354.61,1579.61 4326.5,1577.72 4298.38,1575.83C4276.42,1574.41 4254.45,1572.99 4232.95,1571.22C4218.42,1570.04 4204.02,1568.62 4190.08,1567.09C4169.76,1564.84 4150.28,1562.01 4131.97,1558.46C4115.55,1540.04 4100.67,1520.67 4087.56,1500.59C4136.22,1513.94 4191.14,1521.73 4247.48,1527.87C4250.43,1528.23 4253.38,1528.47 4256.34,1528.82C4257.4,1528.94 4258.46,1529.06 4259.53,1529.17C4272.64,1530.47 4285.87,1531.77 4299.09,1533.07C4307.95,1533.9 4316.69,1534.72 4325.55,1535.43C4352.13,1537.92 4378.58,1540.39 4404.33,1543.23C4413.54,1544.17 4422.52,1545.24 4431.38,1546.3C4450.75,1548.78 4469.41,1551.38 4487.48,1554.57C4495.98,1556.1 4504.37,1557.64 4512.52,1559.41C4540.87,1565.32 4566.73,1572.76 4589.41,1582.32L4589.41,1582.44C4605.59,1589.29 4620,1597.32 4632.28,1606.65L4632.28,1606.77C4650.94,1620.95 4664.76,1638.43 4672.44,1660.04C4669.61,1660.63 4666.89,1661.22 4664.17,1661.81C4655.67,1663.7 4647.16,1665.71 4638.66,1667.72C4628.62,1670.08 4618.7,1672.44 4608.78,1674.8C4591.42,1640.2 4556.93,1618.7 4512.52,1604.76C4504.49,1602.28 4496.1,1599.92 4487.48,1597.91ZM4379.41,1636.42C4370.31,1635.59 4361.1,1635 4351.65,1634.53C4335.36,1633.82 4318.58,1633.35 4301.22,1632.87C4269.33,1632.05 4235.55,1631.22 4200.12,1627.68L4176.26,1603.94L4160.79,1588.46C4172.13,1590.12 4183.82,1591.54 4195.63,1592.72C4228.35,1596.14 4262.6,1598.5 4296.85,1600.75C4320.83,1602.28 4344.8,1603.94 4368.19,1605.83C4377.4,1606.65 4386.61,1607.48 4395.59,1608.43C4428.66,1611.85 4459.96,1616.46 4487.48,1623.42C4496.22,1625.67 4504.61,1628.15 4512.52,1630.87C4544.88,1642.09 4569.92,1657.91 4583.74,1680.94L4569.1,1684.61C4555.87,1687.92 4542.76,1691.1 4529.53,1694.41C4523.98,1689.21 4518.31,1684.61 4512.52,1680.35C4504.37,1674.33 4496.1,1669.01 4487.48,1664.53C4454.65,1647.16 4418.62,1639.96 4379.41,1636.42Z" style="fill:rgb(44,42,41);"/>
    </g>
    <g transform="matrix(1,0,0,1,477.213,0)">
        <text x="199.434px" y="6135.17px" style="font-family:'Arial-BoldMT', 'Arial', sans-serif;font-weight:700;font-size:920.379px;fill:rgb(43,43,43);">V<tspan x="745.01px 1409.68px 2074.35px 2654.53px 3251.78px 3507.49px " y="6135.17px 6135.17px 6135.17px 6135.17px 6135.17px 6135.17px ">ACAY I</tspan>NN</text>
    </g>
</svg>
